<svg width="177.000000" height="50.000000" viewBox="0 0 177 50" fill="none" xmlns="http://www.w3.org/2000/svg" xmlns:xlink="http://www.w3.org/1999/xlink">
	<desc>
			Created with Pixso.
	</desc>
	<defs/>
	<path id="Interno" d="M44.87 38.59L44.87 39L55.16 39L55.16 38.59L54.36 38.27Q53.56 37.96 53.29 37.5Q53.04 37.03 53.04 36.23L53.04 15.35Q53.04 14.55 53.29 14.07Q53.56 13.59 54.36 13.31L55.16 13L55.16 12.6L44.87 12.6L44.87 13L45.67 13.31Q46.51 13.59 46.75 14.07Q46.99 14.55 46.99 15.35L46.99 36.23Q46.99 37.03 46.73 37.52Q46.48 38 45.67 38.27L44.87 38.59ZM83.39 38.33Q84.81 39.59 87.35 39.59Q89.36 39.59 90.75 38.8Q91.57 38.34 92.18 37.68Q92.62 37.21 92.96 36.63L92.56 36.23Q91.91 36.95 91.27 37.37Q91.14 37.46 90.99 37.53Q90.46 37.79 89.79 37.79Q89.3 37.79 88.9 37.61Q88.52 37.43 88.21 37.08Q87.6 36.36 87.6 34.95L87.6 20.56L92.12 20.56L92.12 19.76L87.64 19.76L87.75 14.15L87.35 14.15L84.07 17.79Q83.19 18.67 82.29 19.2Q81.4 19.72 80.16 19.99L79.2 20.16L79.2 20.56L81.95 20.56L81.95 34.24Q81.95 36.99 83.32 38.27Q83.35 38.29 83.37 38.31Q83.38 38.32 83.39 38.33ZM56.84 38.59L56.84 39L66.23 39L66.23 38.59L65.88 38.48Q65.24 38.3 64.89 37.87Q64.47 37.37 64.47 36.51L64.47 22.91Q66.55 21.15 68.31 21.15Q69.6 21.15 70.24 21.8Q70.88 22.44 70.88 23.71L70.88 36.48Q70.88 37.27 70.49 37.77Q70.14 38.23 69.47 38.44L68.95 38.59L68.95 39L78.4 39L78.4 38.59L78.04 38.48Q77.27 38.28 76.89 37.78Q76.51 37.29 76.51 36.51L76.51 24.99Q76.51 22.03 75.09 20.6Q74.95 20.45 74.79 20.32Q73.41 19.15 71.04 19.15Q69.32 19.15 67.55 19.95Q66.01 20.65 64.75 21.69Q64.57 21.84 64.39 21.99L64.07 19.59L63.67 19.19L56.84 21.51L56.84 21.91L57.43 22.07Q58.23 22.24 58.52 22.66Q58.8 23.08 58.8 23.96L58.8 36.48Q58.8 37.33 58.38 37.83Q58.03 38.26 57.39 38.44L56.84 38.59ZM108.55 20.22Q106.71 19.15 104.12 19.15Q103.23 19.15 102.37 19.31Q100.82 19.58 99.37 20.35Q98.76 20.67 98.22 21.08Q96.73 22.17 95.67 23.86Q94.23 26.15 94.23 29.43Q94.23 32.6 95.47 34.88Q96.21 36.24 97.3 37.23Q98.03 37.89 98.91 38.38Q98.99 38.42 99.07 38.46Q101.22 39.59 103.96 39.59Q106.84 39.59 108.89 38.35Q109.54 37.96 110.11 37.47Q111.34 36.41 112.19 34.91L111.79 34.55Q110.72 35.79 109.48 36.44Q108.24 37.07 106.23 37.07Q104 37.07 102.6 35.99Q102.14 35.64 101.77 35.18Q100.28 33.27 100.24 28.96L112.15 28.96Q112.28 28.59 112.32 28.14Q112.36 27.68 112.36 27.24Q112.36 25.01 111.45 23.25Q111.41 23.17 111.37 23.1Q110.97 22.34 110.41 21.71Q109.63 20.83 108.55 20.22ZM114.36 38.59L114.36 39L124.72 39L124.72 38.59L123.44 38.23Q122.82 38.06 122.48 37.65Q122.03 37.13 122.03 36.23L122.03 25.08Q122.28 24.43 122.53 23.94Q122.76 23.51 123.08 23.18Q123.14 23.13 123.19 23.08Q123.54 22.63 123.94 22.58Q124.05 22.57 124.15 22.58Q124.23 22.59 124.3 22.61Q124.74 22.72 125.08 23.19L125.16 23.27Q126.15 24.57 127.38 24.87Q127.74 24.95 128.12 24.95Q128.7 24.95 129.19 24.74Q129.61 24.56 129.97 24.22Q130.09 24.11 130.18 23.99Q130.75 23.28 130.75 22.11Q130.75 21.25 130.39 20.59Q130.21 20.27 129.95 19.99Q129.86 19.9 129.77 19.82Q128.98 19.15 127.64 19.15Q126.55 19.15 125.45 19.76Q125.42 19.77 125.39 19.79Q124.33 20.38 123.46 21.3Q122.61 22.19 122.06 23.23Q122.02 23.29 121.99 23.35L121.99 23.04L121.63 19.59L121.23 19.19L114.36 21.51L114.36 21.91L114.95 22.07Q115.75 22.24 116.06 22.66Q116.36 23.08 116.36 23.96L116.36 36.48Q116.36 37.24 116.06 37.72Q115.75 38.19 114.95 38.44L114.36 38.59ZM132 38.59L132 39L141.39 39L141.39 38.59L141.04 38.48Q140.4 38.3 140.05 37.87Q139.63 37.37 139.63 36.51L139.63 22.91Q141.71 21.15 143.47 21.15Q144.76 21.15 145.4 21.8Q146.04 22.44 146.04 23.71L146.04 36.48Q146.04 37.27 145.65 37.77Q145.3 38.23 144.63 38.44L144.12 38.59L144.12 39L153.56 39L153.56 38.59L153.2 38.48Q152.43 38.28 152.05 37.78Q151.67 37.29 151.67 36.51L151.67 24.99Q151.67 22.03 150.25 20.6Q150.11 20.45 149.95 20.32Q148.57 19.15 146.2 19.15Q144.48 19.15 142.71 19.95Q141.17 20.65 139.91 21.69Q139.73 21.84 139.55 21.99L139.23 19.59L138.83 19.19L132 21.51L132 21.91L132.59 22.07Q133.39 22.24 133.67 22.66Q133.96 23.08 133.96 23.96L133.96 36.48Q133.96 37.33 133.54 37.83Q133.19 38.26 132.55 38.44L132 38.59ZM159.95 38.33Q162.2 39.59 165.23 39.59Q168.28 39.59 170.5 38.33Q171.47 37.78 172.25 37.03Q173.25 36.07 173.93 34.78Q175.16 32.47 175.16 29.32Q175.16 26.15 173.86 23.88Q173.09 22.52 171.99 21.55Q171.23 20.87 170.31 20.37Q170.15 20.28 169.98 20.2Q167.87 19.15 165.23 19.15Q162.72 19.15 160.66 20.12Q160.39 20.25 160.14 20.39Q159.18 20.92 158.4 21.63Q157.33 22.6 156.57 23.92Q155.27 26.19 155.27 29.32Q155.27 32.43 156.49 34.76Q157.18 36.05 158.18 37.02Q158.97 37.78 159.95 38.33ZM102.63 20.25Q103.24 19.95 104 19.95Q105.01 19.95 105.7 20.43Q106.39 20.91 106.75 21.88Q107.47 23.8 107.07 28.16L100.24 28.16Q100.28 24.91 100.74 23.14Q101.2 21.36 102.02 20.66Q102.3 20.41 102.63 20.25ZM167.17 38.25Q166.4 38.8 165.23 38.8Q164.11 38.8 163.33 38.28Q163.14 38.15 162.98 38Q162.12 37.2 161.74 35.16Q161.36 33.12 161.36 29.4Q161.36 25.64 161.74 23.59Q162.12 21.55 162.98 20.75Q163.14 20.6 163.33 20.47Q164.11 19.95 165.23 19.95Q166.4 19.95 167.17 20.5Q167.34 20.62 167.48 20.75Q168.32 21.55 168.69 23.59Q169.07 25.64 169.07 29.4Q169.07 33.12 168.69 35.16Q168.32 37.2 167.48 38Q167.34 38.14 167.17 38.25Z" fill="#292F36" fill-opacity="1.000000" fill-rule="evenodd"/>
	<path id="Logo" d="M0 42L13.45 42L13.45 32.49C13.45 30.48 15.08 28.85 17.1 28.85C19.11 28.85 20.74 30.48 20.74 32.49L20.74 42L33.99 42L33.99 8C15.22 8 0 23.22 0 42Z" fill="#CDA274" fill-opacity="1.000000" fill-rule="nonzero"/>
</svg>
